<?xml version="1.0" encoding="utf-8"?>
<!-- Generator: Adobe Illustrator 24.1.1, SVG Export Plug-In . SVG Version: 6.00 Build 0)  -->
<svg version="1.1" id="Capa_1" xmlns="http://www.w3.org/2000/svg" xmlns:xlink="http://www.w3.org/1999/xlink" x="0px" y="0px"
	 viewBox="0 0 210.6 218.8" style="enable-background:new 0 0 210.6 218.8;" xml:space="preserve">
<style type="text/css">
	.st0{fill:url(#SVGID_1_);}
	.st1{fill:url(#SVGID_2_);}
	.st2{opacity:0.37;fill:url(#SVGID_3_);}
	.st3{fill:url(#SVGID_4_);}
	.st4{fill:url(#SVGID_5_);}
	.st5{fill:url(#SVGID_6_);}
	.st6{fill:url(#SVGID_7_);}
	.st7{fill:#FFFFFF;stroke:#000000;stroke-width:0.6973;stroke-miterlimit:10;}
	.st8{fill:url(#SVGID_8_);}
	.st9{fill:url(#SVGID_9_);}
</style>
<g>
	<g>
		<radialGradient id="SVGID_1_" cx="35.2239" cy="66.7775" r="154.419" gradientUnits="userSpaceOnUse">
			<stop  offset="0" style="stop-color:#2A8BF3"/>
			<stop  offset="0.6847" style="stop-color:#754FF6"/>
			<stop  offset="0.9974" style="stop-color:#9932F7"/>
		</radialGradient>
		<path class="st0" d="M128.1,185.4c-0.6,3.3-3.8,5.4-7,4.8c-3.3-0.6-5.4-3.8-4.8-7c0.6-3.3,3.8-5.4,7-4.8
			C126.5,179,128.7,182.1,128.1,185.4z M103.5,16.8c-50.7-0.3-90,39.7-92.3,89.2c-0.6,12.1,0.6,23,5.2,32.9c1.5,1.8,2.9,3,4,4.3
			c13,14.7,32,14,38.1,12.5c-24.5-0.8-37.3-19.2-36.6-45.3c1.1-42,35.6-76,77.6-75.6c19.3,0.2,36.8,7.4,50.2,19.3
			c4,3.5,2.5,10.2-2.7,11.6c-7.2,1.9-16.4,1.6-18.5,1c-6.9-2.1-8.7,4.5-3.9,6.4c2.6,1,5.4,1.3,8.1,1.2c2.2-0.1,2.8,3,0.7,3.7
			c-4,1.3-9.4,2.4-17,3.3c-9,1-8,8.3,0.1,8.1c19.7-0.6,36.5-20,43.3-24.4c6.3,8.7,11.7,18.6,14,29.5c-1.2,1.4-11.9,16.5-11.2,26.2
			c0.4,6,7.3,6.4,6.8-2.1c-0.2-4.3,0.4-7.5,1.5-9.8c1.1-2.5,4.9-1.7,4.9,1c0,0.8,0,1.7,0,2.6c-0.1,26.1-13.6,44.6-33.8,56.8
			c-3.1,1.9-4.7,5.4-4.1,9l0,0.2c1.1,6.4,8.3,9.5,13.7,5.9c25.3-16.8,43.2-45.5,43.3-77C195.1,57.4,154.2,17,103.5,16.8z"/>
		
			<radialGradient id="SVGID_2_" cx="25.4537" cy="44.2423" r="157.4094" gradientTransform="matrix(0.9832 0.1823 -0.1823 0.9832 7.0628 -11.304)" gradientUnits="userSpaceOnUse">
			<stop  offset="0" style="stop-color:#04D3F7"/>
			<stop  offset="0.5849" style="stop-color:#756DF3"/>
			<stop  offset="1" style="stop-color:#C129F1"/>
		</radialGradient>
		<path class="st1" d="M125.7,213.8c-5.7,1.4-11-3.4-10.4-9.2c0-0.1,0-0.1,0-0.2c0.4-3.6,3-6.6,6.5-7.4c40-9.6,72.9-47.2,73.1-90
			c0.3-49.6-40.7-89.9-91.4-90.2C52.7,16.5,13.7,56.5,11.1,106c-1.9,35.9,19.2,46.2,28.5,53.5c-10.7-2.4-31.2-1.7-39.2-50.7
			c0-1.4-0.1-2.8-0.1-4.3C0.6,46.5,47.9-0.3,106,0C164,0.3,210.9,47.6,210.6,105.7C210.3,156.3,172,202.8,125.7,213.8z M102.1,201.2
			c-4.8-0.9-9.4,2.3-10.3,7.1c-0.9,4.8,2.3,9.4,7.1,10.3c4.8,0.9,9.4-2.3,10.3-7.1C110.1,206.7,106.9,202,102.1,201.2z"/>
		<linearGradient id="SVGID_3_" gradientUnits="userSpaceOnUse" x1="14.9511" y1="93.4941" x2="39.3879" y2="164.289">
			<stop  offset="0" style="stop-color:#FFFFFF"/>
			<stop  offset="1" style="stop-color:#222221"/>
		</linearGradient>
		<path class="st2" d="M58.5,155.7c-11.2-0.3-19.9-4.4-26-11.1l0,0C10.4,133.9,1,110.2,1.1,92c-0.5,4.1-0.8,8.3-0.8,12.6
			c0,1.4,0,2.8,0.1,4.3c8,49,28.5,48.3,39.2,50.7C45,157,53,157.1,58.5,155.7z"/>
		
			<radialGradient id="SVGID_4_" cx="151.6349" cy="107.0466" r="160.1274" gradientTransform="matrix(0.9832 0.1823 -0.1823 0.9832 7.0628 -11.304)" gradientUnits="userSpaceOnUse">
			<stop  offset="1.041670e-03" style="stop-color:#D395F7"/>
			<stop  offset="0.611" style="stop-color:#55B3FC"/>
			<stop  offset="1" style="stop-color:#09C5FF"/>
		</radialGradient>
		<path class="st3" d="M114.2,121.8c-16.5,21.6-38.5,37.8-67.1,33.2c-28-4.5-45.7-31.7-46-63c-7.8,54.5,26.4,82.7,61.5,84.9
			c30.8,1.9,56.7-15.8,71.8-37.4C129.5,130.7,119,124.8,114.2,121.8z"/>
		
			<radialGradient id="SVGID_5_" cx="132.7928" cy="121.7297" r="122.6429" gradientTransform="matrix(0.9832 0.1823 -0.1823 0.9832 7.0628 -11.304)" gradientUnits="userSpaceOnUse">
			<stop  offset="5.008000e-04" style="stop-color:#FFD3F7"/>
			<stop  offset="0.3167" style="stop-color:#B3D3F7"/>
			<stop  offset="1" style="stop-color:#04D3F7"/>
		</radialGradient>
		<path class="st4" d="M125.5,129.4c-4.3-3.5-8.6-5.9-11.3-7.6c-16.5,21.6-38.5,37.8-67.1,33.2c-28-4.5-45.7-31.7-46-63
			c0,0.1,0,0.1,0,0.2c-4.5,49.8,26.5,73,57.4,74.6C86.6,168.2,111.5,152.2,125.5,129.4z"/>
		<g>
			
				<linearGradient id="SVGID_6_" gradientUnits="userSpaceOnUse" x1="156.9308" y1="89.6619" x2="90.9643" y2="168.2239" gradientTransform="matrix(0.9988 -4.810000e-02 4.810000e-02 0.9988 -3.208 5.6582)">
				<stop  offset="4.106570e-03" style="stop-color:#FFFFFF"/>
				<stop  offset="0.3192" style="stop-color:#B3F2FD"/>
				<stop  offset="1" style="stop-color:#04D3F7"/>
			</linearGradient>
			<path class="st5" d="M137.1,141.1c-9.6-3.5-18.1-9.6-25.1-19.2c-1.6-2.1-1.5-5.1,0.2-7.1c7.9-9.6,30.4-36.7,37.3-42.9
				c8.5-7.5,26.2-16.3,30.1-13.3c3.9,3,0.6,22.1-4.4,32.8c-3.2,6.8-24.1,37.2-31.3,47.5C142.3,141.1,139.6,142,137.1,141.1z"/>
			
				<linearGradient id="SVGID_7_" gradientUnits="userSpaceOnUse" x1="166.6366" y1="79.8939" x2="103.8372" y2="151.9766" gradientTransform="matrix(0.9988 -4.810000e-02 4.810000e-02 0.9988 -3.208 5.6582)">
				<stop  offset="4.106570e-03" style="stop-color:#FFFFFF"/>
				<stop  offset="0.3543" style="stop-color:#B3E6FF"/>
				<stop  offset="0.9969" style="stop-color:#1FB4FF"/>
			</linearGradient>
			<path class="st6" d="M179.6,58.6L179.6,58.6C179.6,58.6,179.6,58.6,179.6,58.6c-0.1-0.1-0.2-0.2-0.3-0.2v0
				c-4.4-2.4-21.5,6.2-29.8,13.5c-6.9,6.2-29.4,33.3-37.3,42.9c-1.7,2.1-1.8,5-0.2,7.1c2.2,3,4.6,5.7,7.1,8.1l0,0c0,0,0,0,0,0
				c0.6,0.6,1.2,1.1,1.9,1.7c0.1,0.1,0.3,0.2,0.4,0.4c0.5,0.5,1.1,0.9,1.7,1.3c0.1,0.1,0.2,0.2,0.3,0.2c0.7,0.5,1.3,1,2,1.5
				c0.1,0.1,0.2,0.1,0.3,0.2c0.6,0.4,1.1,0.8,1.7,1.1c0.2,0.1,0.3,0.2,0.5,0.3c0.6,0.4,1.2,0.7,1.8,1.1c0.1,0,0.2,0.1,0.3,0.1
				c0.7,0.4,1.4,0.7,2.1,1.1c0.2,0.1,0.4,0.2,0.5,0.2c0.6,0.3,1.1,0.5,1.7,0.7c0.2,0.1,0.4,0.2,0.6,0.3c0.7,0.3,1.5,0.6,2.2,0.9
				c0.1,0,0.1,0,0.2,0.1l0,0c2.4,0.8,5.1-0.1,6.5-2.2c7.3-10.4,28.2-40.7,31.3-47.5C180.1,80.8,183.5,61.7,179.6,58.6z M172,90.1
				c-3.6,6.6-26.4,35.6-34.5,45.3c-3,3.6-7.8,1.5-13.8-3.3c-3.8-3.1-9.4-8.9-6-13.3c7.5-9.9,28.4-38.2,35-44.7
				c6.8-6.7,20.3-14.7,26.7-15.3C181.6,63.8,177.3,80.6,172,90.1z"/>
			<path class="st7" d="M118.1,145.8"/>
			<linearGradient id="SVGID_8_" gradientUnits="userSpaceOnUse" x1="141.2108" y1="109.5417" x2="115.4788" y2="143.3129">
				<stop  offset="2.564100e-03" style="stop-color:#04FFF7"/>
				<stop  offset="0.6325" style="stop-color:#7E75F3"/>
				<stop  offset="1" style="stop-color:#C129F1"/>
			</linearGradient>
			<path class="st8" d="M116.6,109.4l-14,13.3c-0.9,1.1-2.7,0.1-2.3-1.2l3-10.1c0.2-0.8,0.7-1.6,1.3-2.2l10.8-10.4
				c1.1-1,2.7-1.1,3.8-0.2l3.9,3L116.6,109.4z M147.9,133.2l-9,17.1c-0.8,1.2,0.6,2.6,1.8,1.9l8.9-5.6c0.7-0.5,1.4-1.1,1.8-1.9
				l7.1-13.2c0.7-1.3,0.3-2.9-0.8-3.8l-3.9-3L147.9,133.2z M121.1,138.1l6.7-6.3l10.9-14.3c0.6-0.7,0.4-1.8-0.3-2.4l-1.8-1.4
				c-0.7-0.6-1.8-0.4-2.4,0.3l-10.9,14.4l-4.2,8C118.3,137.9,120,139.2,121.1,138.1z"/>
			
				<linearGradient id="SVGID_9_" gradientUnits="userSpaceOnUse" x1="170.1567" y1="73.8511" x2="146.0535" y2="99.6282" gradientTransform="matrix(0.9988 -4.810000e-02 4.810000e-02 0.9988 -3.208 5.6582)">
				<stop  offset="2.564100e-03" style="stop-color:#04FFF7"/>
				<stop  offset="0.6325" style="stop-color:#7E75F3"/>
				<stop  offset="1" style="stop-color:#C129F1"/>
			</linearGradient>
			<path class="st9" d="M160.7,73.3c-4.8,0.2-8.6,4.3-8.3,9.2c0.2,4.8,4.3,8.6,9.2,8.3c4.8-0.2,8.6-4.3,8.3-9.2
				C169.7,76.7,165.6,73,160.7,73.3z M161.5,88.6c-3.6,0.2-6.7-2.6-6.9-6.2c-0.2-3.6,2.6-6.7,6.2-6.9c3.6-0.2,6.7,2.6,6.9,6.2
				C167.9,85.3,165.1,88.4,161.5,88.6z"/>
		</g>
	</g>
</g>
</svg>
